<svg width="170" height="32" viewBox="0 0 170 32" fill="none" xmlns="http://www.w3.org/2000/svg">
<path d="M12.0574 9.10231C12.4287 8.8032 12.8361 8.60207 13.2848 8.48861C13.7283 8.37515 14.177 8.35453 14.6205 8.41641C15.064 8.4783 15.4869 8.62786 15.884 8.85993C16.2811 9.09716 16.6266 9.41174 16.9257 9.80884C17.493 10.603 17.7096 11.4385 17.5755 12.3152C17.4414 13.1919 16.9773 13.9294 16.1831 14.5225L13.9913 16.1212L17.0753 20.6904C17.3744 21.0617 17.591 21.4691 17.7251 21.9178C17.8592 22.3613 17.9107 22.81 17.8746 23.2535C17.8385 23.697 17.7148 24.1251 17.5033 24.5325C17.2919 24.9399 16.9876 25.2957 16.5957 25.5897C15.8273 26.1828 14.9918 26.4148 14.0893 26.2756C13.1868 26.1415 12.439 25.6877 11.8408 24.9193L8.61242 20.02C7.94199 20.5151 7.52427 20.8193 7.34892 20.9276C7.17358 21.0411 7.04981 21.1184 6.97761 21.17V22.8409C6.97761 23.8311 6.63724 24.6614 5.9565 25.3267C5.27575 25.9971 4.45061 26.3272 3.48623 26.3272C2.49605 26.3272 1.66576 25.9919 1.00048 25.3267C0.330056 24.6562 0 23.8311 0 22.8409V6.1679C0 5.20351 0.335213 4.37838 1.00048 3.69763C1.67091 3.01689 2.49605 2.67651 3.48623 2.67651C3.95552 2.67651 4.40935 2.76935 4.84255 2.955C5.27575 3.14066 5.64707 3.3882 5.9565 3.69763C6.26592 4.00706 6.51347 4.37838 6.69912 4.81158C6.88478 5.24478 6.97761 5.6986 6.97761 6.1679V12.8155L12.0574 9.10231Z" fill="#00838F"/>
<path d="M20.4119 3.41918C20.4119 2.45479 20.7471 1.64512 21.4123 0.985008C22.0828 0.330051 22.9079 0 23.8981 0C24.8625 0 25.6876 0.330051 26.3684 0.985008C27.0491 1.63996 27.3895 2.44964 27.3895 3.41918C27.3895 4.40935 27.0491 5.22418 26.3684 5.86882C25.6876 6.51346 24.8625 6.83321 23.8981 6.83321C22.9079 6.83321 22.0776 6.51346 21.4123 5.86882C20.7471 5.22934 20.4119 4.40935 20.4119 3.41918ZM20.4119 11.846C20.4119 10.8816 20.7471 10.0564 21.4123 9.37568C22.0828 8.69493 22.9079 8.35457 23.8981 8.35457C24.3674 8.35457 24.8212 8.44739 25.2544 8.63305C25.6876 8.81871 26.0589 9.06625 26.3684 9.37568C26.6778 9.68511 26.9253 10.0564 27.111 10.4896C27.2966 10.9228 27.3895 11.3767 27.3895 11.846V22.8358C27.3895 23.826 27.0491 24.6563 26.3684 25.3216C25.6876 25.992 24.8625 26.322 23.8981 26.322C22.9079 26.322 22.0776 25.9868 21.4123 25.3216C20.7419 24.6511 20.4119 23.826 20.4119 22.8358V11.846Z" fill="#00838F"/>
<path d="M28.916 17.3434C28.916 16.1056 29.1532 14.9401 29.6225 13.852C30.0918 12.7638 30.7365 11.8097 31.5513 10.9949C32.3661 10.1801 33.3202 9.53545 34.4084 9.06615C35.4965 8.59685 36.662 8.35962 37.8998 8.35962C39.1375 8.35962 40.303 8.59685 41.3911 9.06615C42.4793 9.53545 43.4334 10.1801 44.2482 10.9949C45.063 11.8097 45.7077 12.7638 46.177 13.852C46.6463 14.9401 46.8835 16.1056 46.8835 17.3434C46.8835 18.5811 46.6463 19.7466 46.177 20.8347C45.7077 21.9229 45.063 22.877 44.2482 23.6918C43.4334 24.5066 42.4793 25.1513 41.3911 25.6206C40.303 26.0899 39.1375 26.3271 37.8998 26.3271C36.662 26.3271 35.4965 26.0899 34.4084 25.6206C33.3202 25.1513 32.3661 24.5066 31.5513 23.6918C30.7365 22.877 30.0918 21.9229 29.6225 20.8347C29.1532 19.7466 28.916 18.5811 28.916 17.3434ZM35.8988 17.3434C35.8988 17.9106 36.0896 18.416 36.4764 18.8492C36.858 19.2824 37.3376 19.499 37.9049 19.499C38.4722 19.499 38.9518 19.2824 39.3334 18.8492C39.7151 18.416 39.911 17.9158 39.911 17.3434C39.911 16.7761 39.7202 16.2707 39.3334 15.8375C38.9518 15.4043 38.4722 15.1877 37.9049 15.1877C37.3376 15.1877 36.858 15.4043 36.4764 15.8375C36.0896 16.2758 35.8988 16.7761 35.8988 17.3434Z" fill="#00838F"/>
<path d="M48.5236 19.4218C48.9207 18.9783 49.3384 18.674 49.7871 18.5142C50.2306 18.3543 50.6483 18.2718 51.0299 18.2718C51.4116 18.2718 51.7623 18.313 52.0717 18.4007C52.3811 18.4884 52.608 18.5657 52.7576 18.6431C53.0773 18.7926 53.4332 19.035 53.8148 19.3651C54.1964 19.7003 54.5781 20.02 54.9494 20.3295C55.3207 20.6389 55.6662 20.8761 55.9911 21.036C56.3109 21.1959 56.5739 21.1804 56.7698 20.9793C56.9194 20.8297 56.8833 20.6492 56.6564 20.4429C56.4346 20.2315 56.2335 20.0768 56.0633 19.9788C55.3465 19.5817 54.7379 19.2671 54.2428 19.0299C53.7478 18.7926 53.3146 18.5864 52.9432 18.4007C52.5719 18.215 52.2212 18.0345 51.886 17.8644C51.5508 17.689 51.1743 17.4569 50.7515 17.1578C49.9108 16.5905 49.3693 15.7654 49.1373 14.6876C48.9 13.6097 49.0702 12.4803 49.6375 11.289C50.1584 10.2266 50.9423 9.40665 51.9943 8.83937C53.0464 8.27208 54.5523 8.10705 56.5068 8.35459C57.1515 8.42679 57.925 8.61245 58.8275 8.91157C59.73 9.21068 60.5552 9.59746 61.2978 10.0822C62.0404 10.567 62.618 11.1446 63.0255 11.8253C63.4329 12.5061 63.4793 13.29 63.1544 14.1822C62.9584 14.7288 62.6645 15.1362 62.2828 15.4096C61.9012 15.6829 61.4783 15.8428 61.0193 15.8943C60.5603 15.9459 60.1014 15.9046 59.6475 15.7809C59.1885 15.6571 58.7966 15.4611 58.4769 15.1878C58.054 14.8423 57.6672 14.5071 57.3062 14.1873C56.9452 13.8676 56.5842 13.6922 56.2129 13.6664C56.0169 13.6407 55.8416 13.7025 55.692 13.8521C55.5424 14.0017 55.6198 14.1718 55.9138 14.373C56.6048 14.7959 57.2185 15.1362 57.7497 15.3941C58.2809 15.6519 58.843 15.9201 59.4412 16.1934C60.2819 16.5648 61.04 16.998 61.7052 17.493C62.3757 17.9881 62.912 18.5399 63.3194 19.1433C63.7268 19.7519 63.9744 20.4017 64.062 21.0927C64.1497 21.7838 64.0053 22.5264 63.634 23.3206C63.2885 24.0632 62.8037 24.646 62.1848 25.0637C61.566 25.4866 60.8956 25.796 60.1787 25.992C59.4619 26.188 58.7244 26.3066 57.9715 26.3427C57.2185 26.3788 56.5429 26.3736 55.9499 26.3221C55.2794 26.2705 54.6142 26.1467 53.9437 25.9508C53.2733 25.7548 52.6493 25.5279 52.0665 25.2803C51.4838 25.0328 50.9732 24.7904 50.5245 24.5583C50.081 24.3211 49.7561 24.1303 49.5602 23.9807C49.2868 23.8105 49.0135 23.5578 48.7453 23.2381C48.472 22.9184 48.2554 22.5574 48.0955 22.1603C47.9357 21.7632 47.8738 21.33 47.9099 20.8607C47.946 20.4017 48.1523 19.9169 48.5236 19.4218Z" fill="#00838F"/>
<path d="M64.9697 17.3434C64.9697 16.1056 65.207 14.9401 65.6763 13.852C66.1456 12.7638 66.785 11.8149 67.5896 11.0104C68.3941 10.2059 69.343 9.56124 70.4311 9.08162C71.5193 8.59685 72.6848 8.35962 73.9225 8.35962C74.7167 8.35962 75.4593 8.45761 76.1504 8.65873C76.8415 8.85471 77.45 9.08162 77.9709 9.32916C78.5897 9.60249 79.157 9.91192 79.6779 10.2575C80.3225 10.7783 80.8434 11.2889 81.2353 11.7994C81.6324 12.3048 81.8284 12.9185 81.8284 13.6354C81.8284 14.5998 81.5448 15.3682 80.9723 15.9355C80.405 16.5027 79.6212 16.7915 78.631 16.7915C77.8884 16.7915 77.2076 16.5801 76.5888 16.1624C76.3154 15.987 75.9286 15.7859 75.4181 15.5487C74.9127 15.3114 74.4073 15.198 73.9122 15.198C73.3449 15.2238 72.8705 15.4507 72.4991 15.8839C72.1278 16.3171 71.9422 16.807 71.9422 17.3485C71.9422 17.9158 72.1278 18.4109 72.4991 18.8338C72.8705 19.2567 73.3398 19.4784 73.9122 19.5042C74.4073 19.5042 74.9075 19.3856 75.4181 19.1535C75.9235 18.9163 76.3154 18.7152 76.5888 18.5398C77.2076 18.1169 77.8884 17.9106 78.631 17.9106C79.6212 17.9106 80.3999 18.1943 80.9723 18.7667C81.5396 19.334 81.8284 20.1024 81.8284 21.0668C81.8284 21.7837 81.6376 22.4644 81.2508 23.109C80.864 23.7537 80.3535 24.2849 79.7088 24.7078C79.1622 25.0069 78.5846 25.275 77.9657 25.5226C77.4191 25.7186 76.8105 25.9042 76.1298 26.0796C75.449 26.2549 74.7116 26.3374 73.9225 26.3374C72.6848 26.3374 71.5193 26.095 70.4311 25.6154C69.343 25.1306 68.3941 24.4912 67.5896 23.6866C66.785 22.8821 66.1456 21.9332 65.6763 20.8451C65.207 19.7466 64.9697 18.5811 64.9697 17.3434Z" fill="#00838F"/>
<path d="M82.7927 17.3434C82.7927 16.1056 83.03 14.9401 83.4993 13.852C83.9685 12.7638 84.6132 11.8097 85.428 10.9949C86.2429 10.1801 87.1969 9.53545 88.2851 9.06615C89.3732 8.59685 90.5387 8.35962 91.7765 8.35962C93.0142 8.35962 94.1797 8.59685 95.2678 9.06615C96.356 9.53545 97.3101 10.1801 98.1249 10.9949C98.9397 11.8097 99.5844 12.7638 100.054 13.852C100.523 14.9401 100.76 16.1056 100.76 17.3434C100.76 18.5811 100.523 19.7466 100.054 20.8347C99.5844 21.9229 98.9397 22.877 98.1249 23.6918C97.3101 24.5066 96.356 25.1513 95.2678 25.6206C94.1797 26.0899 93.0142 26.3271 91.7765 26.3271C90.5387 26.3271 89.3732 26.0899 88.2851 25.6206C87.1969 25.1513 86.2429 24.5066 85.428 23.6918C84.6132 22.877 83.9685 21.9229 83.4993 20.8347C83.03 19.7466 82.7927 18.5811 82.7927 17.3434ZM89.7755 17.3434C89.7755 17.9106 89.9663 18.416 90.3531 18.8492C90.7347 19.2824 91.2143 19.499 91.7816 19.499C92.3489 19.499 92.8285 19.2824 93.2101 18.8492C93.5918 18.416 93.7877 17.9158 93.7877 17.3434C93.7877 16.7761 93.5969 16.2707 93.2101 15.8375C92.8285 15.4043 92.3489 15.1877 91.7816 15.1877C91.2143 15.1877 90.7347 15.4043 90.3531 15.8375C89.9663 16.2758 89.7755 16.7761 89.7755 17.3434Z" fill="#00838F"/>
<path d="M111.42 17.3434C111.42 16.1056 111.637 14.9401 112.07 13.852C112.503 12.7638 113.101 11.8097 113.87 10.9949C114.638 10.1801 115.546 9.53545 116.598 9.06615C117.65 8.59685 118.795 8.35962 120.032 8.35962C120.899 8.35962 121.791 8.52465 122.704 8.85986C123.622 9.19508 124.364 9.60765 124.932 10.1027C125.128 9.65922 125.458 9.26728 125.917 8.93206C126.376 8.59685 126.85 8.43182 127.345 8.43182C128.016 8.43182 128.521 8.65873 128.867 9.11772C129.212 9.5767 129.387 10.1388 129.387 10.8093V23.9548C129.387 24.6252 129.212 25.1874 128.867 25.6464C128.521 26.1053 128.01 26.3323 127.345 26.3323C126.85 26.3323 126.381 26.1466 125.932 25.7753C125.489 25.404 125.138 25.0223 124.89 24.6252C124.174 25.2699 123.4 25.7134 122.57 25.9609C121.739 26.2085 120.894 26.3323 120.027 26.3323C118.789 26.3323 117.645 26.095 116.593 25.6257C115.54 25.1564 114.628 24.5118 113.864 23.697C113.096 22.8821 112.498 21.9281 112.065 20.8399C111.637 19.7466 111.42 18.5811 111.42 17.3434ZM118.403 17.3434C118.403 17.9106 118.588 18.416 118.96 18.8492C119.331 19.2824 119.8 19.499 120.373 19.499C120.94 19.499 121.425 19.2824 121.822 18.8492C122.219 18.416 122.415 17.9158 122.415 17.3434C122.415 16.7761 122.219 16.2707 121.822 15.8375C121.425 15.4043 120.945 15.1877 120.373 15.1877C119.805 15.1877 119.331 15.4043 118.96 15.8375C118.588 16.2758 118.403 16.7761 118.403 17.3434Z" fill="#00838F"/>
<path d="M131.657 10.7319C131.657 10.0615 131.832 9.49938 132.178 9.04039C132.523 8.58141 133.034 8.35449 133.699 8.35449C134.194 8.35449 134.684 8.53499 135.164 8.89083C135.648 9.25183 135.973 9.63862 136.149 10.0615C136.917 9.49422 137.763 9.06618 138.691 8.78254C139.619 8.49889 140.517 8.35449 141.383 8.35449C142.621 8.35449 143.745 8.59172 144.761 9.06102C145.777 9.53032 146.643 10.175 147.36 10.9898C148.077 11.8046 148.634 12.7587 149.031 13.8468C149.428 14.935 149.624 16.1005 149.624 17.3382C149.624 18.5759 149.428 19.7415 149.031 20.8296C148.634 21.9178 148.077 22.8718 147.36 23.6867C146.643 24.5015 145.777 25.1461 144.761 25.6154C143.745 26.0847 142.621 26.322 141.383 26.322C141.187 26.322 140.94 26.291 140.64 26.2291C140.341 26.1673 140.058 26.0951 139.784 26.0074C139.511 25.9197 139.258 25.8114 139.021 25.6722C138.784 25.5381 138.629 25.3937 138.557 25.2441V28.5499C138.557 29.0192 138.464 29.4678 138.279 29.8856C138.093 30.3084 137.845 30.6694 137.536 30.9789C137.226 31.2883 136.86 31.5358 136.443 31.7215C136.02 31.9071 135.576 32 135.107 32C134.638 32 134.189 31.9071 133.771 31.7215C133.348 31.5358 132.987 31.2883 132.678 30.9789C132.368 30.6694 132.121 30.3033 131.935 29.8856C131.75 29.4627 131.657 29.0192 131.657 28.5499V10.7319ZM142.647 17.3434C142.647 16.7761 142.461 16.2707 142.09 15.8375C141.718 15.4043 141.249 15.1877 140.677 15.1877C140.109 15.1877 139.625 15.4043 139.227 15.8375C138.83 16.2707 138.634 16.7709 138.634 17.3434C138.634 17.9107 138.83 18.4161 139.227 18.8493C139.625 19.2825 140.104 19.4991 140.677 19.4991C141.244 19.4991 141.718 19.2825 142.09 18.8493C142.466 18.4161 142.647 17.9158 142.647 17.3434Z" fill="#00838F"/>
<path d="M151.635 10.7319C151.635 10.0615 151.811 9.49938 152.156 9.04039C152.502 8.58141 153.012 8.35449 153.677 8.35449C154.173 8.35449 154.663 8.53499 155.142 8.89083C155.627 9.25183 155.952 9.63862 156.127 10.0615C156.896 9.49422 157.741 9.06618 158.67 8.78254C159.598 8.49889 160.495 8.35449 161.362 8.35449C162.599 8.35449 163.724 8.59172 164.74 9.06102C165.756 9.53032 166.622 10.175 167.339 10.9898C168.056 11.8046 168.613 12.7587 169.01 13.8468C169.407 14.935 169.603 16.1005 169.603 17.3382C169.603 18.5759 169.407 19.7415 169.01 20.8296C168.613 21.9178 168.056 22.8718 167.339 23.6867C166.622 24.5015 165.756 25.1461 164.74 25.6154C163.724 26.0847 162.599 26.322 161.362 26.322C161.166 26.322 160.918 26.291 160.619 26.2291C160.32 26.1673 160.036 26.0951 159.763 26.0074C159.49 25.9197 159.237 25.8114 159 25.6722C158.762 25.5381 158.608 25.3937 158.536 25.2441V28.5499C158.536 29.0192 158.443 29.4678 158.257 29.8856C158.071 30.3084 157.824 30.6694 157.514 30.9789C157.205 31.2883 156.839 31.5358 156.421 31.7215C155.998 31.9071 155.555 32 155.085 32C154.616 32 154.167 31.9071 153.75 31.7215C153.327 31.5358 152.966 31.2883 152.656 30.9789C152.347 30.6694 152.099 30.3033 151.914 29.8856C151.728 29.4627 151.635 29.0192 151.635 28.5499V10.7319ZM162.625 17.3434C162.625 16.7761 162.439 16.2707 162.068 15.8375C161.697 15.4043 161.228 15.1877 160.655 15.1877C160.088 15.1877 159.603 15.4043 159.206 15.8375C158.809 16.2707 158.613 16.7709 158.613 17.3434C158.613 17.9107 158.809 18.4161 159.206 18.8493C159.603 19.2825 160.083 19.4991 160.655 19.4991C161.222 19.4991 161.697 19.2825 162.068 18.8493C162.439 18.4161 162.625 17.9158 162.625 17.3434Z" fill="#00838F"/>
</svg>
